<?xml version="1.0" encoding="utf-8"?>
<!-- Generator: Adobe Illustrator 18.0.0, SVG Export Plug-In . SVG Version: 6.00 Build 0)  -->
<!DOCTYPE svg PUBLIC "-//W3C//DTD SVG 1.1//EN" "http://www.w3.org/Graphics/SVG/1.1/DTD/svg11.dtd">
<svg version="1.1" id="Layer_1" xmlns="http://www.w3.org/2000/svg" xmlns:xlink="http://www.w3.org/1999/xlink" x="0px" y="0px"
	 viewBox="0 0 122.3 40" enable-background="new 0 0 122.3 40" xml:space="preserve">
<path fill="#FFFFFF" d="M114.1,40H54.9H7.8C2.1,40,0,35.3,0,32.2V7.8C0,2.1,4.7,0,7.8,0h52h54.8c2.8,0,4.5,1.2,5.5,2.1
	c2.2,2.3,2.3,5.4,2.3,5.7v0l0,24.3v0v0C122.2,37.9,117.4,40,114.1,40"/>
<path fill="#606164" d="M7.8,2.6c0,0-5.2,0-5.2,5.2v24.3c0,0,0,5.2,5.2,5.2h47.1c0,0,5.2,0,7.6-4.6L76.3,7.2c0,0,2.5-4.6-2.7-4.6
	H7.8z"/>
<path fill="#FFFFFF" d="M17.5,14.3h3.2L20,17.7h-3.3l-1.2,5.9c-0.2,0.7-0.3,1.3-0.3,1.9c0,0.8,0.7,0.8,1.6,0.8
	c0.5,0,1.1-0.1,1.6-0.1L17.7,30c-1,0.1-2,0.2-3,0.2c-2.4,0-4.9-0.3-4.9-2.7c0-1.1,0.2-2.3,0.6-4.1l1.2-5.7H9l0.7-3.3h2.6l1-4.7h5.1
	L17.5,14.3z"/>
<path fill="#FFFFFF" d="M22.2,14.3h5l-0.6,2.6h0.1c1.1-1.8,2.8-3,4.9-3c0.7,0,1.2,0,1.7,0.3l-1,4.5c-0.7-0.2-1.4-0.3-2.3-0.3
	c-2.8,0-3.9,1.8-4.4,4.4L24.1,30H19L22.2,14.3z"/>
<path fill="#FFFFFF" d="M38.2,27.3c3.1,0,3.7-3,3.9-4.5h0c-1.3,1.1-5.9-0.2-5.9,2.8C36.1,26.9,37.2,27.3,38.2,27.3 M33,19.2
	c0.8-4.1,3.8-5.3,7.7-5.3c4.3,0,7.1,1.1,7.1,4.1c0,2.1-1.2,6.4-1.5,7.9c-0.3,1.1-0.5,2.1-0.5,2.9c0,0.5,0.1,0.9,0.2,1.2h-5
	c-0.1-0.8-0.1-0.7-0.1-1.5h-0.1c-1,1.4-2.5,2-4.7,2c-2.9,0-5.1-1.2-5.1-4.4c0-4.2,3.7-5,7.8-5.3c1.8-0.1,4.2,0,4.2-2
	c0-0.9-0.6-1.5-2.2-1.5c-1.6,0-2.6,0.5-2.8,2H33z"/>
<polygon fill="#FFFFFF" points="49,14.3 54.2,14.3 54.9,25.4 54.9,25.4 60,14.3 65.4,14.3 56.9,30 51,30 "/>
<path fill="#F58426" d="M114.5,37.2c0,0,5.2,0,5.2-5.2V7.8c0,0,0-5.2-5.2-5.2H87.9c0,0-5.2,0-7.6,4.6L66.6,32.7c0,0-2.5,4.6,2.7,4.6
	H114.5z"/>
<path fill="#FFFFFF" d="M86.1,27.3c3.1,0,3.7-3,3.9-4.5h0c-1.3,1.1-5.9-0.2-5.9,2.8C84,26.9,85.1,27.3,86.1,27.3 M80.9,19.1
	c0.8-4.1,3.8-5.3,7.7-5.3c4.3,0,7.1,1.1,7.1,4.1c0,2.1-1.2,6.4-1.5,7.9c-0.3,1.1-0.5,2.1-0.5,2.9c0,0.5,0.1,0.9,0.2,1.2h-5
	c-0.1-0.8-0.1-0.7-0.1-1.5h-0.1c-1,1.4-2.5,2-4.7,2c-2.9,0-5.1-1.2-5.1-4.4c0-4.2,3.7-5,7.8-5.3c1.7-0.1,4.2,0,4.2-2
	c0-0.9-0.6-1.5-2.2-1.5c-1.6,0-2.6,0.5-2.8,2H80.9z"/>
<polygon fill="#FFFFFF" points="100.3,8.4 105.5,8.4 101,30 95.8,30 "/>
<polygon fill="#FFFFFF" points="108.1,8.4 113.2,8.4 108.7,30 103.6,30 "/>
<g>
	<path fill="#FFFFFF" d="M116.4,31.9c0,1.1-0.9,2-2,2c-1.1,0-2-0.9-2-2c0-1.1,0.9-2,2-2C115.5,30,116.4,30.8,116.4,31.9z
		 M112.8,31.9c0,0.9,0.6,1.6,1.5,1.6c0.9,0,1.5-0.7,1.5-1.6c0-0.9-0.6-1.6-1.5-1.6C113.5,30.4,112.8,31.1,112.8,31.9z M114,32.9
		h-0.5v-2c0.2,0,0.4-0.1,0.8-0.1c0.4,0,0.5,0.1,0.7,0.1c0.1,0.1,0.2,0.2,0.2,0.4c0,0.2-0.2,0.4-0.4,0.5v0c0.2,0.1,0.3,0.2,0.4,0.5
		c0.1,0.3,0.1,0.4,0.1,0.5h-0.5c-0.1-0.1-0.1-0.3-0.2-0.5c0-0.2-0.2-0.3-0.4-0.3H114V32.9z M114.1,31.8h0.2c0.3,0,0.5-0.1,0.5-0.3
		c0-0.2-0.1-0.3-0.4-0.3c-0.1,0-0.2,0-0.3,0V31.8z"/>
</g>
</svg>
